<svg xmlns="http://www.w3.org/2000/svg">
  <path fill='#353535' d="M44.54 20.14a20.83 20.83 0 0 0-.71-3.76C42.18 11.22 39.3 7.01 35.3 4.2c-1-.7-1.44-.87-2.53-1.5A23.08 23.08 0 0 0 19.15.19c-1.61.22-3.04.59-4.47 1.17-6 2.44-10.6 6.56-13.1 12.49-2.42 5.72-1.89 12.48.4 17.77 3.3 7.6 10.55 13.3 21.64 13.16V32.33h.1c1.31 2.77 6 4.13 9.24 2.13 2.5-1.53 3.57-4.29 3.9-7.2.17-1.55.1-2.93-.14-3.77-.9-3.3-2.32-5.4-5.28-6.6-3.07-1.24-6.53-.03-7.9 2.44-.03-.18-.02-2.12-.02-2.34H16.1c-.08-4.87 2.4-5.77 7.22-5.68V6.94c-7.69-.04-12.64 2.27-12.6 10.05H7.47a7.72 7.72 0 0 0-.7 3.56c1.19 0 3.81.07 3.95.1v12.39c.42 1.04 4 3.28 5.38 3.45V20.55c.69-.01 1.9 0 2.14.03v13.07c0 1 .15 4.76-.1 4.97-.2.13-1.11-.26-1.43-.4a22.98 22.98 0 0 1-3.76-1.93c-3.53-2.36-5.52-5.29-6.9-9.85a17.5 17.5 0 0 1-.5-5.69c.2-1.7.4-2.83.9-4.06A17.5 17.5 0 0 1 21 5.55c3.8-.35 6.62.99 8.01 1.6 4.9 2.11 7.78 5.67 9.45 11.06.58 1.88.77 4.78.4 7.42-.2 1.39-.48 2.74-.91 4.06-1.3 3.94-4.15 6.64-7.42 8.63-1.54.87-2.52 1.17-3.7 1.72-.18.14-.16.1-.26.41-.01 1.3-.22 4.05.31 3.96a11.1 11.1 0 0 0 2.58-.76 23 23 0 0 0 4.73-2.38c5.19-3.45 7.76-6.94 9.75-13.61.48-1.6.91-5.13.61-7.52M23.82 23.6c.38-1.26 1.1-2.64 2.14-3.26.3-.18.47-.24.91-.3 2.59-.05 3.65.87 4.27 2.74.75 2.3.37 6.32-.71 7.82a3.83 3.83 0 0 1-2.04 1.22c-3.9 1-5.59-4.78-4.57-8.22m30.43 15.1V17.48h-3.37l.97-2.4h2.4v-.83c0-2.44.57-4.66 2.05-6.06a6.01 6.01 0 0 1 4.19-1.62c1.15 0 3.04-.23 3.65.02l.1 2.44c-.51-.21-2.57.09-3.5.09-2.65 0-3.37 2.37-3.37 5.02v.93h4.2v2.4H57.4v23.16l-3.15-1.93z"/>
  <path fill='#353535' d="M74.03 28.27c0 1.5.07 2.98.25 4.16h-2.83l-.29-2.19h-.1a6.42 6.42 0 0 1-5.32 2.58c-3.5 0-5.3-2.47-5.3-4.98 0-4.2 3.73-6.49 10.43-6.46v-.35c0-1.44-.15-3.76-3.7-3.72-1.65 0-3.65 0-4.15.08l-.05-2.35c.76-.13 2.48-.06 4.67-.06 5.34 0 6.39 3.32 6.39 6.8v6.49zm-3.09-4.7c-3.44-.07-7.34.54-7.34 3.91 0 2.08 1.36 3.01 2.93 3.01 2.3 0 3.77-1.43 4.27-2.9.11-.32.14-.68.14-1v-3.02zM77 11.88c-1.18 0-1.97-.93-1.97-2.04 0-1.11.83-2 2.04-2 1.23 0 2.01.89 2.01 2 0 1.11-.78 2.04-2.04 2.04H77zm-1.5 3.2h3.15v17.35H75.5V15.07zm10.75-4.17v4.16h4.52v2.4h-4.52v9.37c0 2.15.61 3.37 2.37 3.37.86 0 1.37-.08 1.83-.22l.14 2.4a8.4 8.4 0 0 1-2.8.43 4.5 4.5 0 0 1-3.4-1.32c-.86-.97-1.22-2.51-1.22-4.56v-9.46h-2.69v-2.4h2.7v-3.2l3.07-.97zm5.92-3.94h3.16V17.8h.07c.5-.9 1.29-1.72 2.26-2.23.93-.57 2.04-.9 3.23-.9 2.33 0 6.06 1.44 6.06 7.43v10.33h-3.16v-9.97c0-2.83-1.04-5.16-4.01-5.16a4.57 4.57 0 0 0-4.45 4.66v10.47h-3.15V6.97zm21.05 13.77c0-2.22-.03-4.02-.14-5.67h2.83l.18 2.98h.07a6.7 6.7 0 0 1 6.13-3.37c4.23 0 7.4 3.55 7.4 8.82 0 6.24-3.85 9.32-7.9 9.32-2.33 0-4.3-1-5.34-2.72h-.07v12.32l-3.16-1.93V20.74zm3.16 4.63a4.83 4.83 0 0 0 4.84 4.98c3.33 0 5.27-2.73 5.27-6.7 0-3.48-1.8-6.46-5.13-6.46-2.15 0-4.2 1.5-4.8 3.87-.08.43-.18.9-.18 1.3v3zm14.42-4.88c0-2.05-.04-3.8-.15-5.42h2.76l.14 3.41h.11c.8-2.33 2.73-3.8 4.84-3.8.33 0 .58.03.86.1v2.95c-.36-.04-.68-.08-1.1-.08-2.23 0-3.8 1.69-4.24 4.02-.07.47-.1.97-.1 1.5v9.26h-3.16l.03-11.94zm15.88 12.33c-4.67 0-8.32-3.44-8.32-8.93 0-5.8 3.84-9.21 8.6-9.21 4.99 0 8.36 3.62 8.36 8.9 0 6.45-4.48 9.24-8.6 9.24h-.04zm.1-2.36c3.02 0 5.28-2.83 5.28-6.78 0-2.94-1.47-6.63-5.2-6.63-3.7 0-5.31 3.44-5.31 6.74 0 3.8 2.15 6.67 5.2 6.67h.04zm9.65-10.69c0-1.83-.07-3.26-.14-4.7h2.76l.14 2.8h.11a6 6 0 0 1 5.49-3.2 5.12 5.12 0 0 1 4.87 3.49h.08c.53-1 1.25-1.72 1.97-2.26a5.82 5.82 0 0 1 3.8-1.22c2.33 0 5.74 1.5 5.74 7.53v10.22h-3.09V22.6c0-3.37-1.25-5.34-3.76-5.34-1.83 0-3.2 1.33-3.77 2.83a5.53 5.53 0 0 0-.25 1.58v10.76h-3.08v-10.4c0-2.8-1.22-4.77-3.63-4.77-1.93 0-3.4 1.58-3.9 3.16-.18.46-.25 1-.25 1.54v10.47h-3.09V19.77zm28.31-7.89c-1.18 0-1.97-.93-1.97-2.04 0-1.11.82-2 2.04-2s2.01.89 2.01 2c0 1.11-.79 2.04-2.04 2.04h-.04zm-1.5 3.2h3.15v17.35h-3.15V15.07zm4.86 14.16a8.92 8.92 0 0 0 4.19 1.22c2.26 0 3.33-1.11 3.33-2.58 0-1.51-.9-2.33-3.19-3.2-3.15-1.14-4.62-2.83-4.62-4.9 0-2.8 2.29-5.1 5.98-5.1 1.76 0 3.3.47 4.23 1.08l-.75 2.26a7.02 7.02 0 0 0-3.55-1.01c-1.86 0-2.87 1.08-2.87 2.37 0 1.47 1 2.11 3.27 2.97 2.97 1.12 4.55 2.62 4.55 5.24 0 3.08-2.4 5.24-6.45 5.24a9.9 9.9 0 0 1-4.88-1.22l.75-2.37zm14.26-4.95c.07 4.27 2.77 6.02 5.92 6.02a12 12 0 0 0 4.8-.86l.58 2.23c-1.11.5-3.05 1.1-5.81 1.1-5.3 0-8.53-3.54-8.53-8.74 0-5.27 3.11-9.4 8.17-9.4 5.67 0 7.14 4.99 7.14 8.18 0 .64-.04 1.15-.1 1.5l-12.17-.03zm9.22-2.26c.04-1.97-.83-5.13-4.34-5.13-3.23 0-4.59 2.94-4.84 5.13h9.18zm-76.29 19.91c-.3.13-.95.27-1.77.27-2.18 0-3.5-1.19-3.5-3 0-1.95 1.57-3.13 3.66-3.13.82 0 1.4.15 1.66.27l-.27.86a3.77 3.77 0 0 0-1.34-.23c-1.4 0-2.4.76-2.4 2.19 0 1.3.89 2.14 2.39 2.14.5 0 1.04-.1 1.36-.22l.2.85zm10.43-5.76v2.38h2.9v-2.38h1.25v5.93h-1.25V39.5h-2.9v2.61h-1.25v-5.93zm14.94 0v3.46c0 1.16.56 1.7 1.4 1.7.9 0 1.45-.54 1.45-1.7v-3.46h1.25v3.39c0 1.83-1.1 2.64-2.74 2.64-1.58 0-2.6-.76-2.6-2.63v-3.4h1.24zm13.65.08c.47-.07 1.17-.12 1.9-.12.98 0 1.64.14 2.1.47.38.28.59.69.59 1.19 0 .77-.6 1.29-1.24 1.49v.03c.5.15.79.57.96 1.14.21.74.4 1.43.54 1.66h-1.3c-.1-.18-.26-.66-.45-1.4-.2-.78-.52-1.03-1.23-1.04h-.63v2.44h-1.24v-5.86zm1.24 2.62h.74c.85 0 1.37-.38 1.37-.98 0-.65-.52-.95-1.34-.95-.4 0-.65.03-.77.06v1.87zm17.57 3.06c-.3.13-.94.27-1.77.27-2.17 0-3.5-1.19-3.5-3 0-1.95 1.57-3.13 3.66-3.13.83 0 1.42.15 1.67.27l-.27.86a3.75 3.75 0 0 0-1.34-.23c-1.4 0-2.4.76-2.4 2.19 0 1.3.88 2.14 2.39 2.14.5 0 1.03-.1 1.36-.22l.2.85zm10.44-5.76v2.38h2.9v-2.38h1.25v5.93h-1.25V39.5h-2.9v2.61h-1.25v-5.93z"/>
</svg>
